PathFileType	4	(X/Y/Z)	/home/abdul/Desktop/myosuite/custom_workspace/IK/output/S16_12_3.trc
DataRate	CameraRate	NumFrames	NumMarkers	Units	OrigDataRate	OrigDataStartFrame	OrigNumFrames
200.0	200.0	22	3	mm	200.0	458	1220
Frame#	Time	V_Shoulder			V_Elbow			V_Wrist		
		X1	Y1	Z1	X2	Y2	Z2	X3	Y3	Z3

458	2.285	-112.52243402321908	588.1133732363762	313.1574346052525	-245.8815884003662	416.6660561504549	76.57852853599769	-102.60670396358381	320.0572119261982	257.70401259847154
459	2.29	-112.51277508646785	588.8054367600258	313.2898384500793	-245.65892430112558	416.7780719868925	77.17650443152141	-102.66112375137962	321.80533349962	259.2187747748836
460	2.295	-112.50125215737592	589.4924080334164	313.41972689191624	-245.44012504458658	416.8899382213015	77.77230646260381	-102.71375686715616	323.54235655940727	260.69767804799585
461	2.3	-112.48794327185966	590.1740759866085	313.54706647380675	-245.2253652077788	417.00182585280925	78.36556489334147	-102.76442375109156	325.26766991037744	262.1408758514136
462	2.305	-112.47292862492532	590.8502348342531	313.6718267829524	-245.01480570286446	417.1138940795204	78.95591547503393	-102.81295222650348	326.9806582831475	263.54854219658
463	2.31	-112.4562903997654	591.5206841481366	313.7939804544543	-244.8085936073419	417.22628990015994	79.54299993801064	-102.85917784658818	328.68070339917404	264.92087111472443
464	2.315	-112.43811259446927	592.1852289249165	313.9135031694959	-244.60686204136	417.3391477670936	80.12646647159684	-102.90294421710999	330.367185113983	266.25807614044606
465	2.32	-112.4184808468271	592.8436796492027	314.03037364795495	-244.4097300920891	417.45258929130955	80.7059701913285	-102.94410329436698	332.0394826331009	267.56038983511536
466	2.325	-112.39748225770752	593.4958523521419	314.14457363543994	-244.2173027849506	417.566722999787	81.28117359250541	-102.9825156578475	333.69697579468084	268.8280633479209
467	2.33	-112.37520521349006	594.1415686656463	314.25608788476467	-244.0296711013703	417.6816441455238	81.85174698915216	-103.01805075708018	335.33904641233335	270.0613660120555
468	2.335	-112.3517392080315	594.7806558724101	314.3649041318812	-243.84691204258235	417.79743457034107	82.41736893743922	-103.0505871322714	336.96507967122113	271.26058497322765
469	2.34	-112.32717466464243	595.4129469518413	314.4710130663088	-243.6690887388773	417.91416262043356	82.9777266426008	-103.08001260841473	338.57446557006335	272.42602484740223
470	2.345	-112.30160275854568	596.0382806220301	314.5744082961077	-243.49625060355794	418.0318831144857	83.5325163483738	-103.10622446264817	340.1666004013265	273.5580074044191
471	2.35	-112.27511524028199	596.6565013778697	314.67508630745937	-243.3284335307377	418.1506373640249	84.08144370797282	-103.12912956472766	341.7408882615439	274.65687127391453
472	2.355	-112.24780426052075	597.2674595254251	314.7730464189264	-243.1656601359951	418.2704532455419	84.62422413561058	-103.14864449057666	343.29674258342595	275.72297166977046
473	2.36	-112.21976219672439	597.8710112126472	314.86829073048176	-243.00794003877604	418.3913453237658	85.16058313757236	-103.16469560896324	344.83358768118035	276.7566801291536
474	2.365	-112.1910814821045	598.4670184565075	314.96082406740493	-242.8552701853209	418.51331502534293	85.69025662185653	-103.17721914144752	346.3508603002709	277.7583842620688
475	2.37	-112.16185443729546	599.0553491666263	315.0506539191596	-242.70763521078175	418.63635086203135	86.21299118540185	-103.18616119583271	347.8480111627007	278.7284875072471
476	2.375	-112.13217310515898	599.6358771654486	315.1377903733767	-242.56500783908825	418.76042870239104	86.7285443779371	-103.19147777344168	349.3245064988135	279.66740889011606
477	2.38	-112.102129089117	600.2084822050166	315.2222460450814	-242.42734931901794	418.8855120908195	87.23668494150857	-103.19313475062896	350.7798295565631	280.57558277855514
478	2.385	-112.07181339539606	600.7730499803707	315.30403600131143	-242.2946098948295	419.0115526126534	87.73719302476768	-103.19110783502357	352.2134820792113	281.45345863213237
479	2.39	-112.04131627954848	601.3294721396063	315.38317768128974	-242.16672930972499	419.1384903039361	88.22986037113444	-103.18538249708229	353.62498574247286	282.3015007405336
